<svg version="1.1" id="Layer_1" xmlns="http://www.w3.org/2000/svg" xmlns:xlink="http://www.w3.org/1999/xlink" x="0px" y="0px"
	 width="100%" viewBox="0 0 160 160" enable-background="new 0 0 160 160" xml:space="preserve">
<path fill="#0A0705" opacity="1.000000" stroke="none" 
	d="
M109.000000,161.000000 
	C72.666672,161.000000 36.833344,161.000000 1.000010,161.000000 
	C1.000006,107.666679 1.000006,54.333355 1.000003,1.000024 
	C54.333317,1.000016 107.666634,1.000016 160.999969,1.000008 
	C160.999969,54.333309 160.999969,107.666618 160.999985,160.999969 
	C143.833328,161.000000 126.666664,161.000000 109.000000,161.000000 
M121.941963,53.915264 
	C121.941963,53.915264 121.869209,53.909809 122.549232,53.857353 
	C123.026482,52.585777 123.503731,51.314205 123.974495,49.463699 
	C123.954590,49.271740 123.934692,49.079777 123.847900,48.250950 
	C123.534203,47.457329 123.220505,46.663708 123.297707,45.343494 
	C124.323387,44.628986 125.349068,43.914482 126.374748,43.199978 
	C117.841187,42.040073 109.800316,41.989693 101.761871,42.105961 
	C100.793365,42.119965 99.375595,42.790134 98.956917,43.577000 
	C97.198402,46.881874 95.740540,50.346718 94.212708,54.307323 
	C93.798462,55.313381 93.384216,56.319439 92.555191,57.805611 
	C88.792328,64.489418 85.029472,71.173218 80.825157,78.641159 
	C78.915642,74.807587 77.455734,71.876663 76.031586,68.414673 
	C75.923485,67.844856 75.815384,67.275040 75.707283,66.705223 
	C75.433167,66.920143 75.159042,67.135071 74.569054,67.313942 
	C74.569054,67.313942 74.273239,67.197433 73.804535,66.992645 
	C73.239281,66.008293 72.674026,65.023941 72.207153,63.277027 
	C68.912743,56.769413 65.672905,50.232849 62.255951,43.790226 
	C61.820957,42.970058 60.467941,42.172321 59.527702,42.157475 
	C51.429855,42.029575 43.329132,42.083958 34.809540,42.083958 
	C35.177189,43.210266 35.279987,43.850021 35.575603,44.382793 
	C41.300900,54.701233 47.028721,65.018478 52.833229,75.292343 
	C53.258186,76.044510 54.271473,76.464287 55.151478,77.686974 
	C55.505737,78.495560 55.860001,79.304138 56.136681,80.835876 
	C57.610558,83.686653 59.084435,86.537430 60.787663,90.061684 
	C67.382927,101.924568 73.978188,113.787453 81.060097,126.525673 
	C86.618866,116.359230 91.525925,107.384712 96.912247,97.934883 
	C99.958649,92.306419 103.005051,86.677956 106.567688,80.614220 
	C111.078491,72.745384 115.589294,64.876541 120.455383,56.593849 
	C120.589600,56.258751 120.723816,55.923653 120.905411,55.250973 
	C120.905411,55.250973 121.154358,55.018082 121.513443,54.704990 
	C121.737495,54.463196 121.868706,54.178593 121.941963,53.915264 
z"/>
<path fill="#9F7A21" opacity="1.000000" stroke="none" 
	d="
M55.011234,77.038597 
	C54.271473,76.464287 53.258186,76.044510 52.833229,75.292343 
	C47.028721,65.018478 41.300900,54.701233 35.575603,44.382793 
	C35.279987,43.850021 35.177189,43.210266 34.809540,42.083958 
	C43.329132,42.083958 51.429855,42.029575 59.527702,42.157475 
	C60.467941,42.172321 61.820957,42.970058 62.255951,43.790226 
	C65.672905,50.232849 68.912743,56.769413 71.824265,63.753387 
	C65.964661,68.499367 60.487946,72.768982 55.011234,77.038597 
z"/>
<path fill="#96752B" opacity="1.000000" stroke="none" 
	d="
M94.172592,53.752991 
	C95.740540,50.346718 97.198402,46.881874 98.956917,43.577000 
	C99.375595,42.790134 100.793365,42.119965 101.761871,42.105961 
	C109.800316,41.989693 117.841187,42.040073 126.374748,43.199978 
	C125.349068,43.914482 124.323387,44.628986 122.667740,45.621277 
	C112.749382,48.517036 103.460991,51.135014 94.172592,53.752991 
z"/>
<path fill="#E0B442" opacity="1.000000" stroke="none" 
	d="
M96.432983,98.410187 
	C91.525925,107.384712 86.618866,116.359230 81.060097,126.525673 
	C73.978188,113.787453 67.382927,101.924568 60.824150,89.598785 
	C60.860641,89.135895 61.162647,88.883186 61.411514,89.106171 
	C67.961960,100.062958 74.263535,110.796768 81.046646,122.350822 
	C82.509529,119.897202 83.403084,118.375206 84.318779,116.866669 
	C88.162720,110.534058 92.013290,104.205467 96.003891,98.009552 
	C96.146347,98.143700 96.432976,98.410187 96.432983,98.410187 
z"/>
<path fill="#E0B442" opacity="1.000000" stroke="none" 
	d="
M75.995834,68.945740 
	C77.455734,71.876663 78.915642,74.807587 80.825157,78.641159 
	C85.029472,71.173218 88.792328,64.489418 93.151497,57.517780 
	C99.407021,55.384109 105.066238,53.538273 110.827614,51.820751 
	C110.929771,51.949066 111.133781,52.205944 110.868851,52.433884 
	C107.847336,53.734653 105.164291,55.095722 102.319199,55.821697 
	C95.939690,57.449543 91.412537,60.889252 89.030014,67.218521 
	C87.878494,70.277603 86.131355,73.141541 84.410500,75.944412 
	C83.607101,77.252945 81.914871,79.299652 81.171860,79.088585 
	C79.717667,78.675484 78.622276,76.936821 77.422836,75.703598 
	C75.417908,73.642220 73.447868,71.546883 71.684860,69.254936 
	C72.695450,68.428497 73.484344,67.812965 74.273239,67.197433 
	C74.273239,67.197433 74.569054,67.313942 74.775513,67.582169 
	C75.319931,68.215508 75.657883,68.580620 75.995834,68.945740 
z"/>
<path fill="#251604" opacity="1.000000" stroke="none" 
	d="
M110.725456,51.692436 
	C105.066238,53.538273 99.407021,55.384109 93.358887,57.277725 
	C93.384216,56.319439 93.798462,55.313381 94.192650,54.030159 
	C103.460991,51.135014 112.749382,48.517036 122.472298,45.884571 
	C123.220505,46.663708 123.534203,47.457329 123.473694,48.574646 
	C118.974808,49.829712 114.850128,50.761074 110.725456,51.692436 
z"/>
<path fill="#211003" opacity="1.000000" stroke="none" 
	d="
M74.038887,67.095032 
	C73.484344,67.812965 72.695450,68.428497 71.675720,69.259781 
	C71.444878,69.475540 71.448830,69.501007 71.176620,69.615479 
	C70.141777,70.333755 69.379158,70.937553 68.729218,71.687851 
	C68.841904,71.834351 68.591660,71.562271 68.307312,71.661751 
	C67.282120,72.392029 66.541267,73.022835 65.739197,73.649597 
	C65.677971,73.645561 65.660820,73.767075 65.358994,73.841011 
	C63.969177,74.888161 62.881191,75.861374 61.797417,76.856537 
	C61.801632,76.878487 61.788471,76.825668 61.465515,76.909637 
	C59.499794,78.033318 57.857029,79.073021 56.214264,80.112724 
	C55.860001,79.304138 55.505737,78.495560 55.081356,77.362785 
	C60.487946,72.768982 65.964661,68.499367 71.775070,64.134674 
	C72.674026,65.023941 73.239281,66.008293 74.038887,67.095032 
z"/>
<path fill="#E0B442" opacity="1.000000" stroke="none" 
	d="
M110.827614,51.820751 
	C114.850128,50.761074 118.974808,49.829712 123.507133,48.893082 
	C123.934692,49.079777 123.954590,49.271740 123.717575,49.939861 
	C122.930168,51.580620 122.399689,52.745213 121.869209,53.909809 
	C121.869209,53.909809 121.941963,53.915264 121.701996,54.001396 
	C121.359474,54.397713 121.256912,54.707897 121.154358,55.018082 
	C121.154358,55.018082 120.905411,55.250973 120.644096,55.585003 
	C120.288551,56.281925 120.194321,56.644814 120.100098,57.007706 
	C115.589294,64.876541 111.078491,72.745384 106.195816,80.729721 
	C105.823944,80.845215 105.596321,80.641075 105.697845,80.294594 
	C109.278793,73.230766 112.851112,66.558990 116.182358,59.768940 
	C117.212837,57.668495 117.587440,55.246273 118.262337,52.971375 
	C116.050209,52.698135 113.838356,52.422558 111.625359,52.156544 
	C111.465782,52.137363 111.297836,52.187851 111.133781,52.205948 
	C111.133781,52.205944 110.929771,51.949066 110.827614,51.820751 
z"/>
<path fill="#E0B442" opacity="1.000000" stroke="none" 
	d="
M105.937698,80.947357 
	C103.005051,86.677956 99.958649,92.306419 96.672607,98.172531 
	C96.432976,98.410187 96.146347,98.143700 96.077164,97.660248 
	C99.204094,91.664886 102.400208,86.152977 105.596313,80.641075 
	C105.596321,80.641075 105.823944,80.845215 105.937698,80.947357 
z"/>
<path fill="#E0B442" opacity="1.000000" stroke="none" 
	d="
M56.175472,80.474304 
	C57.857029,79.073021 59.499794,78.033318 61.430004,77.262260 
	C58.400993,81.161957 59.654331,85.016342 61.162647,88.883186 
	C61.162647,88.883186 60.860641,89.135895 60.709473,89.262054 
	C59.084435,86.537430 57.610558,83.686653 56.175472,80.474304 
z"/>
<path fill="#251604" opacity="1.000000" stroke="none" 
	d="
M122.209221,53.883583 
	C122.399689,52.745213 122.930168,51.580620 123.720810,50.229328 
	C123.503731,51.314205 123.026482,52.585777 122.209221,53.883583 
z"/>
<path fill="#211003" opacity="1.000000" stroke="none" 
	d="
M76.013710,68.680206 
	C75.657883,68.580620 75.319931,68.215508 74.933456,67.600189 
	C75.159042,67.135071 75.433167,66.920143 75.707283,66.705223 
	C75.815384,67.275040 75.923485,67.844856 76.013710,68.680206 
z"/>
<path fill="#251604" opacity="1.000000" stroke="none" 
	d="
M121.333893,54.861534 
	C121.256912,54.707897 121.359474,54.397713 121.684555,53.969357 
	C121.868706,54.178593 121.737495,54.463196 121.333893,54.861534 
z"/>
<path fill="#251604" opacity="1.000000" stroke="none" 
	d="
M120.277740,56.800777 
	C120.194321,56.644814 120.288551,56.281925 120.620407,55.753796 
	C120.723816,55.923653 120.589600,56.258751 120.277740,56.800777 
z"/>
<path fill="#FDC12B" opacity="1.000000" stroke="none" 
	d="
M61.411514,89.106171 
	C59.654331,85.016342 58.400993,81.161957 61.752960,77.178284 
	C61.788471,76.825668 61.801632,76.878487 62.166672,76.872330 
	C63.574753,75.833138 64.617783,74.800110 65.660820,73.767075 
	C65.660820,73.767075 65.677971,73.645561 66.082779,73.680161 
	C67.188950,72.997261 67.890305,72.279770 68.591660,71.562271 
	C68.591660,71.562271 68.841904,71.834351 69.087830,71.741814 
	C70.038780,70.933189 70.743805,70.217094 71.448830,69.501007 
	C71.448830,69.501007 71.444878,69.475540 71.454010,69.470688 
	C73.447868,71.546883 75.417908,73.642220 77.422836,75.703598 
	C78.622276,76.936821 79.717667,78.675484 81.171860,79.088585 
	C81.914871,79.299652 83.607101,77.252945 84.410500,75.944412 
	C86.131355,73.141541 87.878494,70.277603 89.030014,67.218521 
	C91.412537,60.889252 95.939690,57.449543 102.319199,55.821697 
	C105.164291,55.095722 107.847336,53.734653 110.868851,52.433884 
	C111.297836,52.187851 111.465782,52.137363 111.625359,52.156544 
	C113.838356,52.422558 116.050209,52.698135 118.262337,52.971375 
	C117.587440,55.246273 117.212837,57.668495 116.182358,59.768940 
	C112.851112,66.558990 109.278793,73.230766 105.697838,80.294594 
	C102.400208,86.152977 99.204094,91.664886 95.934708,97.526100 
	C92.013290,104.205467 88.162720,110.534058 84.318779,116.866669 
	C83.403084,118.375206 82.509529,119.897202 81.046646,122.350822 
	C74.263535,110.796768 67.961960,100.062958 61.411514,89.106171 
z"/>
<path fill="#E0B442" opacity="1.000000" stroke="none" 
	d="
M65.358994,73.841011 
	C64.617783,74.800110 63.574753,75.833138 62.162460,76.850372 
	C62.881191,75.861374 63.969177,74.888161 65.358994,73.841011 
z"/>
<path fill="#E0B442" opacity="1.000000" stroke="none" 
	d="
M71.176620,69.615479 
	C70.743805,70.217094 70.038780,70.933189 68.975143,71.595314 
	C69.379158,70.937553 70.141777,70.333755 71.176620,69.615479 
z"/>
<path fill="#E0B442" opacity="1.000000" stroke="none" 
	d="
M68.307312,71.661751 
	C67.890305,72.279770 67.188950,72.997261 66.144012,73.684189 
	C66.541267,73.022835 67.282120,72.392029 68.307312,71.661751 
z"/>
</svg>