<svg width="154" height="89" viewBox="0 0 154 89" xmlns="http://www.w3.org/2000/svg">
<path d="M3.21743 3.35482C5.27818 1.2947 8.07277 0.137388 10.9867 0.137388C13.9006 0.137388 16.6951 1.2947 18.7559 3.35482L76.9207 61.5196L135.086 3.35482C136.099 2.30526 137.312 1.46809 138.652 0.892163C139.993 0.31624 141.435 0.0130942 142.894 0.000414898C144.353 -0.0122644 145.8 0.265784 147.151 0.818321C148.501 1.37086 149.728 2.18683 150.76 3.21861C151.792 4.2504 152.608 5.47734 153.16 6.82785C153.713 8.17836 153.991 9.62538 153.978 11.0845C153.966 12.5436 153.663 13.9856 153.087 15.3263C152.511 16.667 151.674 17.8796 150.624 18.8933L84.6899 84.8273C82.6292 86.8874 79.8346 88.0447 76.9207 88.0447C74.0068 88.0447 71.2122 86.8874 69.1515 84.8273L3.21743 18.8933C1.15731 16.8325 0 14.0379 0 11.124C0 8.21016 1.15731 5.41556 3.21743 3.35482Z"/>
</svg>
