<svg viewBox="0 0 91 91" xmlns="http://www.w3.org/2000/svg">
<rect width="90.6317" height="90.6317" fill="black"/>
<path fill-rule="evenodd" clip-rule="evenodd" d="M18.4096 20.9586H33.7037L40.0677 32.5729C36.4015 34.8542 32.9825 37.5423 29.5004 40.8054L18.4096 20.9586ZM31.5138 44.4082L45.3158 69.1067L69.0745 26.1389C61.1599 27.9286 54.9578 29.7602 49.61 32.0869L45.0326 41.6339L41.993 36.0866C38.4002 38.3424 35.0262 41.0424 31.5138 44.4082ZM52.1614 26.7654C57.6682 24.7525 63.9778 23.1104 71.6506 21.48L71.9389 20.9586H54.9455L52.1614 26.7654Z" fill="#A47B1C"/>
<path d="M33.7037 20.9586L34.1421 20.7183L33.9998 20.4586H33.7037V20.9586ZM18.4096 20.9586V20.4586H17.5574L17.9731 21.2025L18.4096 20.9586ZM40.0677 32.5729L40.3318 32.9974L40.7335 32.7475L40.5062 32.3327L40.0677 32.5729ZM29.5004 40.8054L29.064 41.0493L29.3758 41.6074L29.8423 41.1703L29.5004 40.8054ZM31.5138 44.4082L31.1678 44.0472L30.8887 44.3147L31.0773 44.6521L31.5138 44.4082ZM45.3158 69.1067L44.8794 69.3506L45.3182 70.1358L45.7534 69.3486L45.3158 69.1067ZM69.0745 26.1389L69.5121 26.3809L70.0514 25.4054L68.9642 25.6512L69.0745 26.1389ZM49.61 32.0869L49.4105 31.6284L49.2397 31.7027L49.1591 31.8707L49.61 32.0869ZM45.0326 41.6339L44.5941 41.8742L45.0623 42.7286L45.4835 41.8501L45.0326 41.6339ZM41.993 36.0866L42.4315 35.8463L42.1765 35.381L41.7271 35.6631L41.993 36.0866ZM52.1614 26.7654L51.7105 26.5492L51.1796 27.6566L52.333 27.235L52.1614 26.7654ZM71.6506 21.48L71.7545 21.9691L71.9777 21.9217L72.0882 21.722L71.6506 21.48ZM71.9389 20.9586L72.3765 21.2005L72.7867 20.4586H71.9389V20.9586ZM54.9455 20.9586V20.4586H54.6307L54.4946 20.7424L54.9455 20.9586ZM33.7037 20.4586H18.4096V21.4586H33.7037V20.4586ZM40.5062 32.3327L34.1421 20.7183L33.2652 21.1989L39.6292 32.8132L40.5062 32.3327ZM29.8423 41.1703C33.3046 37.9256 36.6979 35.2586 40.3318 32.9974L39.8035 32.1484C36.105 34.4497 32.6603 37.1589 29.1585 40.4406L29.8423 41.1703ZM17.9731 21.2025L29.064 41.0493L29.9369 40.5615L18.846 20.7147L17.9731 21.2025ZM31.0773 44.6521L44.8794 69.3506L45.7523 68.8628L31.9502 44.1643L31.0773 44.6521ZM45.7534 69.3486L69.5121 26.3809L68.6369 25.897L44.8783 68.8647L45.7534 69.3486ZM68.9642 25.6512C61.0352 27.4441 54.799 29.284 49.4105 31.6284L49.8095 32.5454C55.1165 30.2364 61.2847 28.413 69.1848 26.6266L68.9642 25.6512ZM49.1591 31.8707L44.5818 41.4178L45.4835 41.8501L50.0608 32.3031L49.1591 31.8707ZM45.4711 41.3937L42.4315 35.8463L41.5545 36.3269L44.5941 41.8742L45.4711 41.3937ZM41.7271 35.6631C38.1003 37.9403 34.6998 40.6626 31.1678 44.0472L31.8597 44.7692C35.3525 41.4222 38.7 38.7445 42.2588 36.51L41.7271 35.6631ZM52.333 27.235C57.8081 25.2337 64.0918 23.5973 71.7545 21.9691L71.5467 20.9909C63.8638 22.6234 57.5283 24.2713 51.9897 26.2958L52.333 27.235ZM72.0882 21.722L72.3765 21.2005L71.5013 20.7166L71.213 21.2381L72.0882 21.722ZM71.9389 20.4586H54.9455V21.4586H71.9389V20.4586ZM54.4946 20.7424L51.7105 26.5492L52.6122 26.9816L55.3963 21.1748L54.4946 20.7424Z" fill="black"/>
<path fill-rule="evenodd" clip-rule="evenodd" d="M30.5882 42.5936L45.3977 69.0947L70.448 23.7908C62.6703 25.4923 56.4124 27.2195 50.9882 29.371L45.1144 41.622L41.1121 34.3177C37.481 36.5869 34.084 39.2811 30.5882 42.5936Z" fill="#FDC12B"/>
<path d="M30.5882 42.5936L30.2443 42.2306L29.9621 42.4981L30.1517 42.8375L30.5882 42.5936ZM45.3977 69.0947L44.9612 69.3386L45.4 70.1238L45.8352 69.3366L45.3977 69.0947ZM70.448 23.7908L70.8856 24.0328L71.4199 23.0664L70.3412 23.3024L70.448 23.7908ZM50.9882 29.371L50.8038 28.9062L50.6219 28.9784L50.5373 29.1548L50.9882 29.371ZM45.1144 41.622L44.6759 41.8622L45.1441 42.7166L45.5653 41.8381L45.1144 41.622ZM41.1121 34.3177L41.5506 34.0774L41.2961 33.613L40.8471 33.8937L41.1121 34.3177ZM30.1517 42.8375L44.9612 69.3386L45.8341 68.8508L31.0247 42.3496L30.1517 42.8375ZM45.8352 69.3366L70.8856 24.0328L70.0105 23.5489L44.9601 68.8527L45.8352 69.3366ZM70.3412 23.3024C62.5514 25.0065 56.264 26.7405 50.8038 28.9062L51.1725 29.8358C56.5609 27.6985 62.7892 25.9782 70.5549 24.2793L70.3412 23.3024ZM50.5373 29.1548L44.6636 41.4058L45.5653 41.8381L51.439 29.5872L50.5373 29.1548ZM45.5529 41.3817L41.5506 34.0774L40.6736 34.5579L44.6759 41.8622L45.5529 41.3817ZM40.8471 33.8937C37.1829 36.1836 33.7598 38.8995 30.2443 42.2306L30.9321 42.9565C34.4082 39.6627 37.7791 36.9902 41.3771 34.7417L40.8471 33.8937Z" fill="black"/>
</svg>
