<svg viewBox="0 0 117 116" xmlns="http://www.w3.org/2000/svg">
    <path d="M114.227 89.4968L87.7512 63.0209C82.5283 57.7981 74.728 56.7806 68.4425 59.8782L44.3406 35.7763V21.7357L15.4003 0.030426L0.930128 14.5006L22.6354 43.4409H36.676L60.7779 67.5428C57.7029 73.8283 58.6978 81.6286 63.9206 86.8515L90.3965 113.327C93.6975 116.628 99.0334 116.628 102.312 113.327L114.227 101.412C117.505 98.1111 117.505 92.7752 114.227 89.4968ZM75.9263 50.9021C82.3248 50.9021 88.339 53.3892 92.8609 57.9111L97.2472 62.2974C100.82 60.7373 104.211 58.5668 107.15 55.6275C115.538 47.2394 118.387 35.4371 115.719 24.7202C115.222 22.6853 112.667 21.9844 111.175 23.4766L94.3532 40.2982L79.0012 37.7433L76.4463 22.3914L93.2679 5.56979C94.7601 4.07755 94.0366 1.52266 91.9792 1.00264C81.2622 -1.64269 69.46 1.20613 61.0944 9.5717C54.6506 16.0154 51.6209 24.5167 51.7792 32.9953L70.3417 51.5578C72.1731 51.1282 74.0723 50.9021 75.9263 50.9021ZM52.4349 69.442L39.6152 56.6224L5.15813 91.1021C-0.494279 96.7545 -0.494279 105.911 5.15813 111.564C10.8105 117.216 19.9674 117.216 25.6199 111.564L53.5654 83.6183C51.847 79.119 51.327 74.2127 52.4349 69.442ZM15.4003 106.748C12.4158 106.748 9.97399 104.306 9.97399 101.322C9.97399 98.3146 12.3932 95.8953 15.4003 95.8953C18.4074 95.8953 20.8266 98.3146 20.8266 101.322C20.8266 104.306 18.4074 106.748 15.4003 106.748Z"/>
</svg>